<?xml version="1.0" encoding="UTF-8" standalone="no"?>
<!DOCTYPE svg PUBLIC "-//W3C//DTD SVG 1.1//EN" "http://www.w3.org/Graphics/SVG/1.1/DTD/svg11.dtd">
<svg width="100%" height="100%" viewBox="0 0 504 639" version="1.1" xmlns="http://www.w3.org/2000/svg" xmlns:xlink="http://www.w3.org/1999/xlink" xml:space="preserve" xmlns:serif="http://www.serif.com/" style="fill-rule:evenodd;clip-rule:evenodd;stroke-linecap:square;stroke-linejoin:round;stroke-miterlimit:1.5;">
    <g transform="matrix(1,0,0,1,-27285.250062,-14279.708513)">
        <g transform="matrix(6.688129,0,0,13.979915,4347.226826,-11166.462382)">
            <g transform="matrix(0.675471,0,0,0.609426,2036.381495,529.736436)">
                <g transform="matrix(0.84197,0.069974,-0.109807,0.386604,-3117.341896,1514.215533)">
                    <path d="M6311.728,607.722C6301.371,616.152 6227.641,547.451 6222.862,513.996C6220.944,500.572 6204.257,437.966 6286.782,426.48C6337.029,419.486 6346.734,479.478 6345.64,505.158C6345.04,519.25 6344.065,521.782 6336.058,545.803C6327.314,572.034 6327.418,567.447 6322.865,582.196C6320.718,589.154 6317.529,603.001 6311.728,607.722Z" style="fill:rgb(245,227,2);stroke:rgb(65,6,130);stroke-width:6.85px;"/>
                </g>
                <g transform="matrix(1.004911,0.021857,-0.042026,0.636153,-3975.950762,1626.986481)">
                    <path d="M6086.987,575.403C6077.09,576.624 6079.863,575.978 6069.805,580.001C6062.66,582.859 6059.625,590.446 6059.157,591.617C6055.381,601.057 6055.116,603.771 6057.344,613.792C6061.159,630.953 6091.29,645.566 6113.606,630.578C6125.004,622.922 6124.798,600.207 6122.318,595.246C6122.214,595.039 6120.308,586.739 6111.67,582.421C6097.441,575.306 6097.2,575.732 6086.987,575.403Z" style="fill:none;stroke:rgb(65,6,130);stroke-width:5.08px;"/>
                </g>
                <g transform="matrix(0.868803,0.018897,-0.032933,0.498512,-3158.598489,1724.757252)">
                    <path d="M6088.202,591.23C6082.552,592.643 6081.292,593.483 6080.768,593.832C6079.617,594.6 6069.821,601.13 6070.979,608.081C6072.867,619.405 6076.092,623.31 6078.537,627.658C6079.118,628.69 6081.964,633.749 6090.804,635.959C6103.434,639.117 6110.915,641.768 6117.318,630.383C6119.687,626.172 6122.275,622.756 6122.275,612.17C6122.275,603.808 6118.493,597.145 6107.902,591.85C6106.361,591.079 6096.711,587.981 6089.565,590.363C6089.526,590.376 6089.565,590.363 6089.069,590.487" style="fill:rgb(65,6,130);"/>
                </g>
            </g>
        </g>
    </g>
</svg>
