<?xml version="1.0" encoding="UTF-8" standalone="no"?>
<!DOCTYPE svg PUBLIC "-//W3C//DTD SVG 1.1//EN" "http://www.w3.org/Graphics/SVG/1.1/DTD/svg11.dtd">
<svg width="100%" height="100%" viewBox="0 0 527 659" version="1.1" xmlns="http://www.w3.org/2000/svg" xmlns:xlink="http://www.w3.org/1999/xlink" xml:space="preserve" xmlns:serif="http://www.serif.com/" style="fill-rule:evenodd;clip-rule:evenodd;stroke-linecap:square;stroke-linejoin:round;stroke-miterlimit:1.5;">
    <g transform="matrix(1,0,0,1,-28033.759963,-14259.157098)">
        <g transform="matrix(6.688129,0,0,13.979915,4347.226826,-11166.462382)">
            <g transform="matrix(0.675471,0,0,0.609426,1864.141531,530.164093)">
                <g transform="matrix(0.661682,-0.010083,0.009397,0.321821,-2686.569331,2081.797298)">
                    <path d="M7896.407,584.413C7893.74,584.131 7857.726,551.231 7831.589,506.575C7808.243,466.689 7810.516,447.58 7812.06,408.072C7812.143,405.958 7823.317,356.909 7868.77,354.068C7924.845,350.563 7931.934,356.637 7951.326,373.604C7968.531,388.659 7999.598,450.236 7959.518,510.356C7954.542,517.82 7913.048,569.485 7912.884,569.595C7910.992,570.856 7899.325,584.722 7896.407,584.413Z" style="fill:rgb(162,216,101);stroke:rgb(176,0,69);stroke-width:8.47px;"/>
                </g>
                <g transform="matrix(1.066748,0.01665,-0.030223,0.63753,-3936.381508,1654.999618)">
                    <path d="M6086.987,575.403C6077.09,576.624 6079.863,575.978 6069.805,580.001C6062.66,582.859 6059.625,590.446 6059.157,591.617C6055.381,601.057 6055.116,603.771 6057.344,613.792C6061.159,630.953 6091.29,645.566 6113.606,630.578C6125.004,622.922 6124.798,600.207 6122.318,595.246C6122.214,595.039 6120.308,586.739 6111.67,582.421C6097.441,575.306 6097.2,575.732 6086.987,575.403Z" style="fill:none;stroke:rgb(176,0,69);stroke-width:5.09px;"/>
                </g>
                <g transform="matrix(0.7395,0.062701,-0.139177,0.474597,-3363.339924,1423.361475)">
                    <path d="M8048.188,426.534C8047.742,433.395 8051.048,447.364 8055.777,468.96C8055.989,469.928 8055.636,474.905 8059.907,472.057C8065.324,468.446 8075.435,463.427 8087.981,456.002C8098.224,449.94 8102.344,446.41 8098.214,443.932C8083.392,435.039 8081.774,435.042 8068.057,430.887C8065.957,430.251 8057.302,427.931 8055.727,427.704C8052.08,427.18 8048.296,424.878 8048.188,426.534Z" style="fill:rgb(176,0,69);"/>
                </g>
            </g>
        </g>
    </g>
</svg>
