<?xml version="1.0" encoding="UTF-8" standalone="no"?>
<!DOCTYPE svg PUBLIC "-//W3C//DTD SVG 1.1//EN" "http://www.w3.org/Graphics/SVG/1.1/DTD/svg11.dtd">
<svg width="100%" height="100%" viewBox="0 0 2300 2513" version="1.1" xmlns="http://www.w3.org/2000/svg" xmlns:xlink="http://www.w3.org/1999/xlink" xml:space="preserve" xmlns:serif="http://www.serif.com/" style="fill-rule:evenodd;clip-rule:evenodd;stroke-linejoin:round;stroke-miterlimit:2;">
    <g transform="matrix(1,0,0,1,-23023.216231,-13776.303947)">
        <g transform="matrix(49.532245,0,0,39.846834,-70266.363072,-9973.441692)">
            <g transform="matrix(0.210416,0,0,0.706028,1436.785209,97.753373)">
                <g transform="matrix(0,0.028422,-0.07672,0,2232.617837,622.075616)">
                    <path d="M3615.036,180.349C3645.31,150.292 3721.616,146.874 3783.42,161.132C3818.914,169.321 3904.842,224.395 4030.987,170.445L4030.987,198.664C3905.14,252.223 3819.408,197.295 3783.966,189.119C3721.787,174.774 3644.929,178.32 3615.036,208.885L3615.036,180.349Z" style="fill:rgb(191,50,105);"/>
                </g>
                <g transform="matrix(0,0.028422,-0.07672,0,2267.137777,624.776764)">
                    <path d="M3615.036,180.349C3645.31,150.292 3721.616,146.874 3783.42,161.132C3818.914,169.321 3904.842,224.395 4030.987,170.445L4030.987,198.664C3905.14,252.223 3819.408,197.295 3783.966,189.119C3721.787,174.774 3644.929,178.32 3615.036,208.885L3615.036,180.349Z" style="fill:rgb(191,50,105);"/>
                </g>
                <g transform="matrix(0,0.028422,-0.07672,0,2253.722814,613.751245)">
                    <path d="M3615.036,180.349C3645.31,150.292 3721.616,146.874 3783.42,161.132C3818.914,169.321 3904.842,224.395 4030.987,170.445L4030.987,198.664C3905.14,252.223 3819.408,197.295 3783.966,189.119C3721.787,174.774 3644.929,178.32 3615.036,208.885L3615.036,180.349Z" style="fill:rgb(191,50,105);"/>
                </g>
                <g transform="matrix(0,0.028422,-0.07672,0,2250.807373,633.42903)">
                    <path d="M3615.036,180.349C3645.31,150.292 3721.616,146.874 3783.42,161.132C3818.914,169.321 3904.842,224.395 4030.987,170.445L4030.987,198.664C3905.14,252.223 3819.408,197.295 3783.966,189.119C3721.787,174.774 3644.929,178.32 3615.036,208.885L3615.036,180.349Z" style="fill:rgb(191,50,105);"/>
                </g>
                <g transform="matrix(0,0.028422,-0.07672,0,2285.527752,611.317282)">
                    <path d="M3615.036,180.349C3645.31,150.292 3721.616,146.874 3783.42,161.132C3818.914,169.321 3904.842,224.395 4030.987,170.445L4030.987,198.664C3905.14,252.223 3819.408,197.295 3783.966,189.119C3721.787,174.774 3644.929,178.32 3615.036,208.885L3615.036,180.349Z" style="fill:rgb(191,50,105);"/>
                </g>
                <g transform="matrix(0,0.028422,-0.07672,0,2320.047693,614.018429)">
                    <path d="M3615.036,180.349C3645.31,150.292 3721.616,146.874 3783.42,161.132C3818.914,169.321 3904.842,224.395 4030.987,170.445L4030.987,198.664C3905.14,252.223 3819.408,197.295 3783.966,189.119C3721.787,174.774 3644.929,178.32 3615.036,208.885L3615.036,180.349Z" style="fill:rgb(191,50,105);"/>
                </g>
                <g transform="matrix(0,0.028422,-0.07672,0,2306.632729,602.992911)">
                    <path d="M3615.036,180.349C3645.31,150.292 3721.616,146.874 3783.42,161.132C3818.914,169.321 3904.842,224.395 4030.987,170.445L4030.987,198.664C3905.14,252.223 3819.408,197.295 3783.966,189.119C3721.787,174.774 3644.929,178.32 3615.036,208.885L3615.036,180.349Z" style="fill:rgb(191,50,105);"/>
                </g>
                <g transform="matrix(0,0.028422,-0.07672,0,2303.717288,622.670696)">
                    <path d="M3615.036,180.349C3645.31,150.292 3721.616,146.874 3783.42,161.132C3818.914,169.321 3904.842,224.395 4030.987,170.445L4030.987,198.664C3905.14,252.223 3819.408,197.295 3783.966,189.119C3721.787,174.774 3644.929,178.32 3615.036,208.885L3615.036,180.349Z" style="fill:rgb(191,50,105);"/>
                </g>
                <g transform="matrix(0,0.028422,-0.07672,0,2267.50081,642.246845)">
                    <path d="M3615.036,180.349C3645.31,150.292 3721.616,146.874 3783.42,161.132C3818.914,169.321 3904.842,224.395 4030.987,170.445L4030.987,198.664C3905.14,252.223 3819.408,197.295 3783.966,189.119C3721.787,174.774 3644.929,178.32 3615.036,208.885L3615.036,180.349Z" style="fill:rgb(191,50,105);"/>
                </g>
                <g transform="matrix(0,0.028422,-0.07672,0,2302.02075,644.947993)">
                    <path d="M3615.036,180.349C3645.31,150.292 3721.616,146.874 3783.42,161.132C3818.914,169.321 3904.842,224.395 4030.987,170.445L4030.987,198.664C3905.14,252.223 3819.408,197.295 3783.966,189.119C3721.787,174.774 3644.929,178.32 3615.036,208.885L3615.036,180.349Z" style="fill:rgb(191,50,105);"/>
                </g>
                <g transform="matrix(0,0.028422,-0.07672,0,2288.605787,633.922474)">
                    <path d="M3615.036,180.349C3645.31,150.292 3721.616,146.874 3783.42,161.132C3818.914,169.321 3904.842,224.395 4030.987,170.445L4030.987,198.664C3905.14,252.223 3819.408,197.295 3783.966,189.119C3721.787,174.774 3644.929,178.32 3615.036,208.885L3615.036,180.349Z" style="fill:rgb(191,50,105);"/>
                </g>
                <g transform="matrix(0,0.028422,-0.07672,0,2285.690346,653.600259)">
                    <path d="M3615.036,180.349C3645.31,150.292 3721.616,146.874 3783.42,161.132C3818.914,169.321 3904.842,224.395 4030.987,170.445L4030.987,198.664C3905.14,252.223 3819.408,197.295 3783.966,189.119C3721.787,174.774 3644.929,178.32 3615.036,208.885L3615.036,180.349Z" style="fill:rgb(191,50,105);"/>
                </g>
                <g transform="matrix(0,0.028422,-0.07672,0,2320.410725,631.488511)">
                    <path d="M3615.036,180.349C3645.31,150.292 3721.616,146.874 3783.42,161.132C3818.914,169.321 3904.842,224.395 4030.987,170.445L4030.987,198.664C3905.14,252.223 3819.408,197.295 3783.966,189.119C3721.787,174.774 3644.929,178.32 3615.036,208.885L3615.036,180.349Z" style="fill:rgb(191,50,105);"/>
                </g>
                <g transform="matrix(0,0.028422,-0.07672,0,2354.930665,634.189658)">
                    <path d="M3615.036,180.349C3645.31,150.292 3721.616,146.874 3783.42,161.132C3818.914,169.321 3904.842,224.395 4030.987,170.445L4030.987,198.664C3905.14,252.223 3819.408,197.295 3783.966,189.119C3721.787,174.774 3644.929,178.32 3615.036,208.885L3615.036,180.349Z" style="fill:rgb(191,50,105);"/>
                </g>
                <g transform="matrix(0,0.028422,-0.07672,0,2341.515702,623.16414)">
                    <path d="M3615.036,180.349C3645.31,150.292 3721.616,146.874 3783.42,161.132C3818.914,169.321 3904.842,224.395 4030.987,170.445L4030.987,198.664C3905.14,252.223 3819.408,197.295 3783.966,189.119C3721.787,174.774 3644.929,178.32 3615.036,208.885L3615.036,180.349Z" style="fill:rgb(191,50,105);"/>
                </g>
                <g transform="matrix(0,0.028422,-0.07672,0,2338.600261,642.841925)">
                    <path d="M3615.036,180.349C3645.31,150.292 3721.616,146.874 3783.42,161.132C3818.914,169.321 3904.842,224.395 4030.987,170.445L4030.987,198.664C3905.14,252.223 3819.408,197.295 3783.966,189.119C3721.787,174.774 3644.929,178.32 3615.036,208.885L3615.036,180.349Z" style="fill:rgb(191,50,105);"/>
                </g>
                <g transform="matrix(0,0.028422,-0.07672,0,2139.605167,648.966882)">
                    <path d="M3615.036,180.349C3645.31,150.292 3721.616,146.874 3783.42,161.132C3818.914,169.321 3904.842,224.395 4030.987,170.445L4030.987,198.664C3905.14,252.223 3819.408,197.295 3783.966,189.119C3721.787,174.774 3644.929,178.32 3615.036,208.885L3615.036,180.349Z" style="fill:rgb(191,50,105);"/>
                </g>
                <g transform="matrix(0,0.028422,-0.07672,0,2174.125107,651.66803)">
                    <path d="M3615.036,180.349C3645.31,150.292 3721.616,146.874 3783.42,161.132C3818.914,169.321 3904.842,224.395 4030.987,170.445L4030.987,198.664C3905.14,252.223 3819.408,197.295 3783.966,189.119C3721.787,174.774 3644.929,178.32 3615.036,208.885L3615.036,180.349Z" style="fill:rgb(191,50,105);"/>
                </g>
                <g transform="matrix(0,0.028422,-0.07672,0,2160.710143,640.642511)">
                    <path d="M3615.036,180.349C3645.31,150.292 3721.616,146.874 3783.42,161.132C3818.914,169.321 3904.842,224.395 4030.987,170.445L4030.987,198.664C3905.14,252.223 3819.408,197.295 3783.966,189.119C3721.787,174.774 3644.929,178.32 3615.036,208.885L3615.036,180.349Z" style="fill:rgb(191,50,105);"/>
                </g>
                <g transform="matrix(0,0.028422,-0.07672,0,2157.794702,660.320296)">
                    <path d="M3615.036,180.349C3645.31,150.292 3721.616,146.874 3783.42,161.132C3818.914,169.321 3904.842,224.395 4030.987,170.445L4030.987,198.664C3905.14,252.223 3819.408,197.295 3783.966,189.119C3721.787,174.774 3644.929,178.32 3615.036,208.885L3615.036,180.349Z" style="fill:rgb(191,50,105);"/>
                </g>
                <g transform="matrix(0,0.028422,-0.07672,0,2192.515082,638.208548)">
                    <path d="M3615.036,180.349C3645.31,150.292 3721.616,146.874 3783.42,161.132C3818.914,169.321 3904.842,224.395 4030.987,170.445L4030.987,198.664C3905.14,252.223 3819.408,197.295 3783.966,189.119C3721.787,174.774 3644.929,178.32 3615.036,208.885L3615.036,180.349Z" style="fill:rgb(191,50,105);"/>
                </g>
                <g transform="matrix(0,0.028422,-0.07672,0,2227.035022,640.909696)">
                    <path d="M3615.036,180.349C3645.31,150.292 3721.616,146.874 3783.42,161.132C3818.914,169.321 3904.842,224.395 4030.987,170.445L4030.987,198.664C3905.14,252.223 3819.408,197.295 3783.966,189.119C3721.787,174.774 3644.929,178.32 3615.036,208.885L3615.036,180.349Z" style="fill:rgb(191,50,105);"/>
                </g>
                <g transform="matrix(0,0.028422,-0.07672,0,2213.620059,629.884177)">
                    <path d="M3615.036,180.349C3645.31,150.292 3721.616,146.874 3783.42,161.132C3818.914,169.321 3904.842,224.395 4030.987,170.445L4030.987,198.664C3905.14,252.223 3819.408,197.295 3783.966,189.119C3721.787,174.774 3644.929,178.32 3615.036,208.885L3615.036,180.349Z" style="fill:rgb(191,50,105);"/>
                </g>
                <g transform="matrix(0,0.028422,-0.07672,0,2210.704617,649.561962)">
                    <path d="M3615.036,180.349C3645.31,150.292 3721.616,146.874 3783.42,161.132C3818.914,169.321 3904.842,224.395 4030.987,170.445L4030.987,198.664C3905.14,252.223 3819.408,197.295 3783.966,189.119C3721.787,174.774 3644.929,178.32 3615.036,208.885L3615.036,180.349Z" style="fill:rgb(191,50,105);"/>
                </g>
                <g transform="matrix(0,0.028422,-0.07672,0,2174.488139,669.138111)">
                    <path d="M3615.036,180.349C3645.31,150.292 3721.616,146.874 3783.42,161.132C3818.914,169.321 3904.842,224.395 4030.987,170.445L4030.987,198.664C3905.14,252.223 3819.408,197.295 3783.966,189.119C3721.787,174.774 3644.929,178.32 3615.036,208.885L3615.036,180.349Z" style="fill:rgb(191,50,105);"/>
                </g>
                <g transform="matrix(0,0.028422,-0.07672,0,2209.00808,671.839259)">
                    <path d="M3615.036,180.349C3645.31,150.292 3721.616,146.874 3783.42,161.132C3818.914,169.321 3904.842,224.395 4030.987,170.445L4030.987,198.664C3905.14,252.223 3819.408,197.295 3783.966,189.119C3721.787,174.774 3644.929,178.32 3615.036,208.885L3615.036,180.349Z" style="fill:rgb(191,50,105);"/>
                </g>
                <g transform="matrix(0,0.028422,-0.07672,0,2195.593116,660.81374)">
                    <path d="M3615.036,180.349C3645.31,150.292 3721.616,146.874 3783.42,161.132C3818.914,169.321 3904.842,224.395 4030.987,170.445L4030.987,198.664C3905.14,252.223 3819.408,197.295 3783.966,189.119C3721.787,174.774 3644.929,178.32 3615.036,208.885L3615.036,180.349Z" style="fill:rgb(191,50,105);"/>
                </g>
                <g transform="matrix(0,0.028422,-0.07672,0,2192.677675,680.491525)">
                    <path d="M3615.036,180.349C3645.31,150.292 3721.616,146.874 3783.42,161.132C3818.914,169.321 3904.842,224.395 4030.987,170.445L4030.987,198.664C3905.14,252.223 3819.408,197.295 3783.966,189.119C3721.787,174.774 3644.929,178.32 3615.036,208.885L3615.036,180.349Z" style="fill:rgb(191,50,105);"/>
                </g>
                <g transform="matrix(0,0.028422,-0.07672,0,2227.398055,658.379777)">
                    <path d="M3615.036,180.349C3645.31,150.292 3721.616,146.874 3783.42,161.132C3818.914,169.321 3904.842,224.395 4030.987,170.445L4030.987,198.664C3905.14,252.223 3819.408,197.295 3783.966,189.119C3721.787,174.774 3644.929,178.32 3615.036,208.885L3615.036,180.349Z" style="fill:rgb(191,50,105);"/>
                </g>
                <g transform="matrix(0,0.028422,-0.07672,0,2261.917995,661.080925)">
                    <path d="M3615.036,180.349C3645.31,150.292 3721.616,146.874 3783.42,161.132C3818.914,169.321 3904.842,224.395 4030.987,170.445L4030.987,198.664C3905.14,252.223 3819.408,197.295 3783.966,189.119C3721.787,174.774 3644.929,178.32 3615.036,208.885L3615.036,180.349Z" style="fill:rgb(191,50,105);"/>
                </g>
                <g transform="matrix(0,0.028422,-0.07672,0,2248.503031,650.055406)">
                    <path d="M3615.036,180.349C3645.31,150.292 3721.616,146.874 3783.42,161.132C3818.914,169.321 3904.842,224.395 4030.987,170.445L4030.987,198.664C3905.14,252.223 3819.408,197.295 3783.966,189.119C3721.787,174.774 3644.929,178.32 3615.036,208.885L3615.036,180.349Z" style="fill:rgb(191,50,105);"/>
                </g>
                <g transform="matrix(0,0.028422,-0.07672,0,2245.58759,669.733191)">
                    <path d="M3615.036,180.349C3645.31,150.292 3721.616,146.874 3783.42,161.132C3818.914,169.321 3904.842,224.395 4030.987,170.445L4030.987,198.664C3905.14,252.223 3819.408,197.295 3783.966,189.119C3721.787,174.774 3644.929,178.32 3615.036,208.885L3615.036,180.349Z" style="fill:rgb(191,50,105);"/>
                </g>
            </g>
        </g>
    </g>
</svg>
